<?xml version="1.0" encoding="utf-8"?>
<!-- Generator: Adobe Illustrator 25.2.3, SVG Export Plug-In . SVG Version: 6.00 Build 0)  -->
<svg version="1.1" id="Layer_1" xmlns="http://www.w3.org/2000/svg" xmlns:xlink="http://www.w3.org/1999/xlink" x="0px" y="0px"
	 viewBox="0 0 808.4 712.5" style="enable-background:new 0 0 808.4 712.5;" xml:space="preserve">
<style type="text/css">
	.st0{fill:#F2F2F2;}
	.st1{fill:#CCCCCC;}
	.st2{fill:#FFFFFF;}
	.st3{fill:#3F3D56;}
	.st4{fill:#CACACA;}
	.st5{fill:#E4E4E4;}
	.st6{fill:#6C63FF;}
	.st7{opacity:0.2;fill:#231F20;enable-background:new    ;}
	.st8{fill:#FFB6B6;}
	.st9{fill:#2F2E41;}
</style>
<g>
	<path class="st0" d="M280.5,622.1c-6,4.1-11.5,8.9-16.4,14.4c-17.2,19.9-24.9,46.3-20.9,72.3l17-9.8c16.3-1.4,31-10.1,40-23.7
		c14.2-21.6,12.5-53.2,32.9-69c-14.5-0.3-28.9,2.9-41.9,9.4l-2,27.6C289.2,643.4,284.2,632.8,280.5,622.1z"/>
	<path id="a8455189-ed55-4a18-ae95-69e4c9a5ea4d-163" class="st1" d="M390.5,712.5c0.7,0,1.2-0.6,1.2-1.2s-0.6-1.2-1.2-1.2H1.2
		c-0.7,0-1.2,0.6-1.2,1.2s0.6,1.2,1.2,1.2H390.5L390.5,712.5z"/>
	<path class="st2" d="M638,415.3h0.4v-0.5C638.3,415,638.1,415.2,638,415.3z M635.5,188.5c-0.8-1.1-1.7-2.2-2.5-3.2
		c-34.8-43.6-86.6-70.1-142.3-72.8c-1.2-0.1-2.5-0.1-3.7-0.1c-1.8,0-3.7-0.1-5.5-0.1c-54.1,0-105.7,22.6-142.4,62.3
		c-1.1,1.2-2.2,2.4-3.2,3.6c-2.1,2.3-4,4.7-6,7.1c-0.9,1.1-1.7,2.2-2.5,3.2c-56.4,73.5-52.8,176.6,8.5,246.1
		c1.1,1.2,2.1,2.4,3.2,3.6c72.6,78.7,195.3,83.5,273.9,10.9c9.8-9,18.6-19,26.3-29.9c0.7-1,1.4-2,2.1-3c17.9-26,29.2-56,32.8-87.4
		c0.1-1.1,0.3-2.2,0.4-3.2c0.6-6.3,0.9-12.7,1-19.2C675.6,263.7,661.5,222.3,635.5,188.5L635.5,188.5z M638.4,415.3v-0.5
		c-0.1,0.2-0.2,0.4-0.4,0.5H638.4z"/>
	<path class="st3" d="M641.4,416.1c-0.7,1-1.4,2-2.1,3l-1.6-3.3l-0.3-0.5l-1.6-3.2l-41.2-83l0,0l-69.8-140.6v0l-1.6-3.2v0
		l-34.5-69.6l-1.6-3.3c1.2,0,2.5,0.1,3.7,0.1l1.6,3.3l34.5,69.4l0,0l1.6,3.2v0l68,137.1v0l1.6,3.2v0l41.2,82.9l0.5,1.1L641.4,416.1z
		"/>
	<path class="st3" d="M674.6,325.5c-0.1,1.1-0.2,2.2-0.4,3.2h-79v-3.2H674.6z"/>
	<path class="st3" d="M393.3,350.8c0.1-1.1,0.2-2.2,0.4-3.2h79v3.2H393.3z"/>
	<path class="st3" d="M406.5,418.8c-1.1-0.1-2.2-0.2-3.2-0.4v-79h3.2V418.8z"/>
	<path class="st3" d="M335.8,188.5v246.1c1.1,1.2,2.1,2.4,3.2,3.6V188.5l296.5,0c-0.8-1.1-1.7-2.2-2.5-3.2l-293.9,0v-10.7
		c-1.1,1.2-2.2,2.4-3.2,3.6v7.1h-6c-0.9,1.1-1.7,2.2-2.5,3.2H335.8z"/>
	<rect x="337.4" y="412.1" class="st3" width="301" height="3.2"/>
	<path class="st1" d="M638,415.3h0.4v-0.5C638.3,415,638.1,415.2,638,415.3z M635.5,188.5c-0.8-1.1-1.7-2.2-2.5-3.2
		c-34.8-43.6-86.6-70.1-142.3-72.8c-1.2-0.1-2.5-0.1-3.7-0.1c-1.8,0-3.7-0.1-5.5-0.1c-54.1,0-105.7,22.6-142.4,62.3
		c-1.1,1.2-2.2,2.4-3.2,3.6c-2.1,2.3-4,4.7-6,7.1c-0.9,1.1-1.7,2.2-2.5,3.2c-56.4,73.5-52.8,176.6,8.5,246.1
		c1.1,1.2,2.1,2.4,3.2,3.6c72.6,78.7,195.3,83.5,273.9,10.9c9.8-9,18.6-19,26.3-29.9c0.7-1,1.4-2,2.1-3c17.9-26,29.2-56,32.8-87.4
		c0.1-1.1,0.3-2.2,0.4-3.2c0.6-6.3,0.9-12.7,1-19.2C675.6,263.7,661.5,222.3,635.5,188.5L635.5,188.5z M671,328.8
		c-3.5,30.1-14.2,58.9-31.2,84c-0.4,0.7-0.9,1.3-1.4,2c-0.1,0.2-0.2,0.4-0.4,0.5c-0.1,0.2-0.2,0.4-0.4,0.5
		c-60.4,86.3-179.2,107.2-265.5,46.9c-12.1-8.5-23.2-18.4-33.1-29.4c-1.1-1.2-2.2-2.5-3.2-3.7c-58.6-69.1-60.5-169.9-4.4-241.1
		c0.9-1.1,1.7-2.2,2.6-3.2c0.6-0.7,1.2-1.4,1.8-2.2c1-1.3,2.1-2.5,3.2-3.7c36.1-40.7,88-63.9,142.4-63.9c2.4,0,4.8,0,7.2,0.1
		c1.2,0,2.5,0.1,3.7,0.2c53.2,3,102.7,28.2,136.5,69.5c0.9,1.1,1.7,2.2,2.6,3.2c30.5,38.8,44.8,87.9,39.9,137.1
		C671.2,326.6,671.1,327.7,671,328.8L671,328.8z M638.4,415.3v-0.5c-0.1,0.2-0.2,0.4-0.4,0.5H638.4z"/>
	<path class="st4" d="M248.9,505.9v-94.4c0-4.9,4-8.9,8.9-8.9h193.7c4.9,0,8.9,4,8.9,8.9v94.4c0,4.9-4,8.9-8.9,8.9H257.9
		C252.9,514.8,248.9,510.8,248.9,505.9z"/>
	<path class="st5" d="M291,507c-20-0.3-36-16.6-36.1-36.6v-58.8c0-1.6,1.3-2.9,2.9-2.9h193.6c1.6,0,2.9,1.3,2.9,2.9v86.7
		c0,4.5-3.6,8.2-8.1,8.3c-16.5,0.3-60.7,0.7-103.1,0.7C324.6,507.2,306.4,507.2,291,507z"/>
	<path class="st4" d="M273.3,459.8l-21.6-50.3l0.3-0.1l-0.3,0.1c-0.3-0.6-0.4-1.3-0.4-2c0-2.7,2.2-5,5-5h0l197,0.3
		c0.6,0,1.1,0.1,1.7,0.3c2.6,0.9,3.9,3.8,3,6.3l-17.8,50c-0.7,2-2.6,3.3-4.7,3.3H277.9C275.9,462.8,274.1,461.6,273.3,459.8z"/>
	<path class="st4" d="M384.7,492.5c0-2.8,2.2-5.1,5-5.1h54.3c2.8,0,5,2.3,5,5c0,2.8-2.2,5.1-5,5.1h-54.3
		C387,497.5,384.7,495.2,384.7,492.5z"/>
	<circle class="st3" cx="355" cy="462.8" r="12.3"/>
	<path class="st6" d="M779.9,220.3c-48,54.1-192.3,64.4-286.2,163.6c-31.5-95.9,13.1-261.4,57.6-324.6
		C595.7-3.8,682.9-18.9,746,25.5S831.1,162.6,779.9,220.3z"/>
	<circle id="faf5c3b1-f7bb-4793-8f76-a694569c182e" class="st2" cx="663.6" cy="122.9" r="45.6"/>
	<circle id="e618366e-6f5c-4381-83a5-490aecbf791d" class="st6" cx="455.1" cy="403.7" r="29.9"/>
	<path class="st7" d="M703.1,101c9.9,16.9,7.9,38.3-5.1,53.1c-16.6,18.9-45.4,20.8-64.3,4.2c12.7,21.7,40.6,29.1,62.4,16.4
		c21.7-12.7,29.1-40.6,16.4-62.4C709.9,108.1,706.8,104.3,703.1,101z"/>
	<path class="st7" d="M761.1,37.8c37.4,48.4,43.9,117.9,2.4,164.7c-46.3,52.2-182.6,63.6-276.5,153.8c1.6,9.4,3.8,18.7,6.8,27.8
		c93.9-99.2,238.2-109.5,286.2-163.6C826.9,167.6,812.4,85.4,761.1,37.8z"/>
	<path class="st8" d="M192.2,448.3l40.1,48.7c0.2,3.2,2.2,6,5.1,7.4c4.5,2.1,9.8,0.2,11.9-4.2c2.1-4.5,0.2-9.8-4.2-11.9l-26.5-43.1
		c0,0-7-29.4-15.4-39.6l-19.4,5.9L192.2,448.3z"/>
	<path class="st6" d="M208.8,415.2L208.8,415.2c7.8-4.4,9.8-20.3,10.1-32.9c0.2-8.6-6.3-15.9-14.9-16.7l0,0
		c-6.2-0.5-12.2,2.5-15.5,7.9l-8,13.4l3.6,29.3L208.8,415.2z"/>
	<polygon class="st8" points="151.1,636.3 168.2,644.5 141.1,686.7 129.5,681.1 	"/>
	<path class="st9" d="M130.1,678.6l3.1,1.5l14.6,0.9l4.1,8.1l0,0c7.7,3.7,10.9,12.9,7.2,20.6l-0.2,0.5L123.2,693L130.1,678.6z"/>
	<polygon class="st8" points="215.9,647 234.9,647 228.8,696.8 215.9,696.8 	"/>
	<path class="st9" d="M215.4,694.3l3.5,0l13.5-5.5l7.2,5.5h0c8.5,0,15.4,6.9,15.4,15.4v0.5l-39.6,0L215.4,694.3z"/>
	<path class="st9" d="M181.9,459.9l-23.5,17.9l-1.3,69.7l2.9,51.8l-0.4,7.6l-10.4,21.6l-1.6,7c-0.9,3.9-9.8,9.2-6.3,11.1l-0.4,7.2
		l17.9,9.7c10.2-18.1,24.6-26.1,35.3-50.3l2.9-5.5l2.1-71.7l9,46v6.1l4.4,11.1l0.9,75.5h17.9l8.8-5.4l-3.1-6.9l7.7-71.5l-5.3-9.5
		l4-13.4l-14.8-101.9L181.9,459.9z"/>
	<circle class="st8" cx="205.5" cy="319.3" r="23.2"/>
	<path class="st6" d="M208.7,505.8c-30.6,0-55.8,11.6-56.2,11.4l-0.3-0.1l0.1-0.3c0.8-2.9,1.6-7.7,0.2-8.4c-0.3-0.1-0.5-0.4-0.6-0.7
		c-0.1-0.6,0.5-1.1,1.3-1.8c1.6-1.4,3.7-3.4,2.4-6.5c-2.2-5.5,6.2-56.9,6.6-58.7l-2.6-45c-1-17.7,10.6-33.7,27.7-38.3l0.1,0l0.1,0
		c0.9,0-2.7-2.9-2-5c1-3.2,1.7-5.1,2.8-5c8.9,0.6,14.8,1,18.8,1.2c7.5,0.5,6.2,12.4,6.4,13.8c5.6,19.9,15.5,95.3,15.5,95.3
		c5.1,4.3,3.7,13,3.4,14.4c4.9,5.1,1.9,11,1.2,12.3c2.5,3.1,3.3,7.3,2.1,11.1l4.5,14.6l-0.3,0.1
		C226.9,514.6,220.2,505.8,208.7,505.8z"/>
	<path class="st9" d="M185.8,333.9c-0.3,0-0.6,0-0.8-0.1c-1.1-0.5-2-1.3-2.5-2.3c-4.1-5.9-6.1-13.8-5.9-23.5
		c0.1-4.1,0.5-9.3,3.4-13.5c2.4-3.5,7.3-6.3,11.8-4.9c-0.1-1.8,0.8-3.6,2.4-4.5c1.7-0.9,3.7-1.4,5.6-1.4c4.6-0.4,9.4-0.9,14,0
		c5.2,1,9.5,3.7,11.7,7.4l0,0.1l0.5,2.2c0,0.1,0.1,0.2,0.1,0.3c0.4,1.1,1.6,1.6,2.7,1.2c0.3-0.1,0.6-0.1,0.9-0.1
		c1,0.2,1.8,1.1,1.6,2.1l-0.1,0.9l1.3-0.2c0.3-0.1,0.7,0,1,0.1c1,0.4,1.5,1.5,1.1,2.4l-0.4,1c0.5,0,1.1,0.2,1.4,0.6
		c0.5,0.6,0.6,1.5,0.2,2.2c-1.5,2.5-3.6,4.6-6.1,6.1c-1.4,0.8-2.9,1.4-4.4,1.7c-10.1,2.2-20.6,2.5-30.8,0.9c0.6,2,0.8,4.1,0.7,6.2
		c-0.2,2.4-1.7,4.6-3.9,5.5c-0.5,0.2-1,0.3-1.4,0.3c-0.5,0.1-0.9,0.2-1.4,0.3c-0.7,0.2-1.3,0.7-1.7,1.2c-1.4,1.7-1.2,4.2,0.5,5.7
		l1-1.1l-0.3,1.3c-0.1,0.5-0.5,1-1,1.2C186.6,333.8,186.2,333.9,185.8,333.9z"/>
	<path class="st8" d="M204.3,458.3l51.8,36.1c1.1,3,3.7,5.2,6.9,5.7c4.9,0.8,9.5-2.4,10.3-7.3c0.8-4.9-2.4-9.5-7.3-10.3l-37.1-34.3
		c0,0-14.7-26.5-25.5-34l-17.1,10.9L204.3,458.3z"/>
	<path class="st6" d="M211.3,421.9L211.3,421.9c6.3-6.3,4-22.2,0.8-34.4c-2.1-8.4-10.4-13.6-18.9-12.1l0,0
		c-6.1,1.2-11.1,5.7-12.8,11.8l-4.1,15.1l11.4,27.3L211.3,421.9z"/>
</g>
</svg>
